<svg width="24" height="24" viewBox="0 0 24 24" fill="none" xmlns="http://www.w3.org/2000/svg">
<g clip-path="url(#clip0_1162_1310)">
<g filter="url(#filter0_d_1162_1310)">
<path d="M3.17884 21.0723C6.70208 18.2775 10.1121 15.3799 13.4086 12.3799L13.8261 12L13.4086 11.6201C10.1121 8.62014 6.70208 5.72254 3.17885 2.92773C2.78737 2.6172 2.39427 2.308 2 2C2.3383 2.35866 2.67795 2.71614 3.01905 3.07227C5.95979 6.14264 9.00564 9.1179 12.1544 12C9.00564 14.8821 5.95979 17.8574 3.01905 20.9277C2.67795 21.2839 2.33829 21.6413 2 22C2.39427 21.692 2.78737 21.3828 3.17884 21.0723Z" fill="#19D05F"/>
<path d="M11.3527 21.0723C14.876 18.2775 18.286 15.3799 21.5825 12.3799L22 12L21.5825 11.6201C18.286 8.62014 14.876 5.72254 11.3527 2.92773C10.9613 2.6172 10.5682 2.308 10.1739 2C10.5122 2.35866 10.8518 2.71614 11.1929 3.07227C14.1337 6.14264 17.1795 9.1179 20.3283 12C17.1795 14.8821 14.1337 17.8574 11.1929 20.9277C10.8518 21.2839 10.5122 21.6413 10.1739 22C10.5682 21.692 10.9613 21.3828 11.3527 21.0723Z" fill="#19D05F"/>
</g>
</g>
<defs>
<filter id="filter0_d_1162_1310" x="0.693356" y="0.693356" width="22.6133" height="22.6133" filterUnits="userSpaceOnUse" color-interpolation-filters="sRGB">
<feFlood flood-opacity="0" result="BackgroundImageFix"/>
<feColorMatrix in="SourceAlpha" type="matrix" values="0 0 0 0 0 0 0 0 0 0 0 0 0 0 0 0 0 0 127 0" result="hardAlpha"/>
<feOffset/>
<feGaussianBlur stdDeviation="0.653322"/>
<feColorMatrix type="matrix" values="0 0 0 0 0.0980392 0 0 0 0 0.815686 0 0 0 0 0.372549 0 0 0 1 0"/>
<feBlend mode="hard-light" in2="BackgroundImageFix" result="effect1_dropShadow_1162_1310"/>
<feBlend mode="normal" in="SourceGraphic" in2="effect1_dropShadow_1162_1310" result="shape"/>
</filter>
<clipPath id="clip0_1162_1310">
<rect width="24" height="24" fill="white"/>
</clipPath>
</defs>
</svg>
