<svg width="23" height="20" viewBox="0 0 23 20" fill="none" xmlns="http://www.w3.org/2000/svg">
<g clip-path="url(#clip0_101_5761)">
<path d="M20.6678 17.1207L19.6817 18.8238C19.4769 19.1824 19.1824 19.4642 18.8366 19.669C17.8463 18.4119 17.1569 17.4472 16.7685 16.775C16.3743 16.0928 15.8898 15.0257 15.3151 13.5737C16.8641 13.3698 18.0379 13.2678 18.8365 13.2678C19.603 13.2678 20.7769 13.3698 22.3581 13.5737C22.3581 13.9706 22.2556 14.3676 22.0507 14.7262L20.6678 17.1207Z" fill="#0066DA"/>
<path d="M3.5218 19.669C3.17595 19.4642 2.88145 19.1824 2.67664 18.8239L2.26686 18.1196L0.307561 14.7262C0.106479 14.3753 0.000562191 13.978 0.000310898 13.5737C1.5907 13.3698 2.76238 13.2678 3.51533 13.2678C4.32459 13.2678 5.49629 13.3698 7.03044 13.5737C6.46252 15.0336 5.98445 16.1007 5.59621 16.775C5.20471 17.4552 4.51324 18.4199 3.5218 19.669Z" fill="#EA4335"/>
<path d="M11.1789 6.40271C10.033 5.01884 9.24336 3.95173 8.80988 3.2014C8.46077 2.59721 8.07661 1.63252 7.65739 0.307336C8.00316 0.102445 8.4001 0 8.80988 0H13.5479C13.9577 0 14.3545 0.115284 14.7004 0.307336C14.167 1.82716 13.7145 2.90879 13.3428 3.55223C12.932 4.26332 12.2107 5.21348 11.1789 6.40271Z" fill="#00832D"/>
<path d="M7.04337 13.5737H15.3157L18.8371 19.6691C18.4914 19.874 18.0945 19.9764 17.6847 19.9764H4.67438C4.2646 19.9764 3.86756 19.8612 3.52189 19.669L7.04337 13.5737Z" fill="#2684FC"/>
<path d="M11.179 6.40266L14.7004 0.307373C15.0462 0.512264 15.3407 0.793923 15.5456 1.15253L22.0507 12.4213C22.2519 12.7721 22.3578 13.1694 22.3581 13.5737H15.3151L11.179 6.40266Z" fill="#00AC47"/>
<path d="M3.56015 6.78669L6.81282 1.15228C7.01762 0.793679 7.31221 0.51202 7.65797 0.307129L11.1794 6.4025L7.0433 13.5736H0.0130796C0.0130796 13.1766 0.115525 12.7797 0.320415 12.4211L3.56015 6.78669Z" fill="#FFBA00"/>
</g>
<defs>
<clipPath id="clip0_101_5761">
<rect width="22.3581" height="20" fill="white" transform="matrix(-1 0 0 1 22.3581 0)"/>
</clipPath>
</defs>
</svg>
