<svg width="20" height="18" viewBox="0 0 20 18" fill="none" xmlns="http://www.w3.org/2000/svg">
<g clip-path="url(#clip0_2118_18517)">
<path d="M11.3125 8.87023L13.2623 11.0989L15.8843 12.7743L16.3404 8.8843L15.8843 5.08203L13.212 6.55383L11.3125 8.87023Z" fill="#00832D"/>
<path d="M0 12.413V15.7278C0 16.4847 0.614375 17.0992 1.37141 17.0992H4.68625L5.37266 14.5946L4.68625 12.413L2.41203 11.7266L0 12.413Z" fill="#0066DA"/>
<path d="M4.68625 0.642578L0 5.32883L2.41219 6.01359L4.68625 5.32883L5.36016 3.17687L4.68625 0.642578Z" fill="#E94235"/>
<path d="M0 12.4157H4.68617V5.33008H0V12.4157Z" fill="#2684FC"/>
<path d="M18.8804 2.62601L15.8867 5.08195V12.7741L18.8927 15.2396C19.3427 15.5921 20.001 15.2709 20.001 14.6988V3.15585C20.001 2.57749 19.327 2.25781 18.8803 2.62609" fill="#00AC47"/>
<path d="M11.3155 8.87109V12.4131H4.6875V17.0994H14.5159C15.273 17.0994 15.8873 16.4848 15.8873 15.728V12.7752L11.3155 8.87109Z" fill="#00AC47"/>
<path d="M14.5159 0.642578H4.6875V5.32883H11.3155V8.87086L15.8873 5.08258V2.01406C15.8873 1.25703 15.273 0.642656 14.5159 0.642656" fill="#FFBA00"/>
</g>
<defs>
<clipPath id="clip0_2118_18517">
<rect width="20" height="16.4844" fill="white" transform="translate(0 0.642578)"/>
</clipPath>
</defs>
</svg>
