<svg width="89" height="20" viewBox="0 0 89 20" fill="none" xmlns="http://www.w3.org/2000/svg">
<g filter="url(#filter0_d_1586_1723)">
<path d="M87.4687 18.815C87.2103 18.5378 86.9532 18.2596 86.6974 17.9803C84.3953 15.4668 82.2001 12.87 80.112 10.1899L79.8714 9.88115L80.112 9.57243C80.112 9.57243 80.112 9.57243 80.112 9.57243C82.2001 6.89227 84.3953 4.29546 86.6974 1.782C86.9532 1.50272 87.2103 1.22448 87.4687 0.947266C87.2631 1.26564 87.0562 1.58299 86.848 1.89931C84.9738 4.74618 82.9926 7.5097 80.9044 10.1899L80.9044 9.57243C82.9926 12.2526 84.9738 15.0161 86.848 17.863C87.0562 18.1793 87.2631 18.4967 87.4687 18.815Z" fill="url(#paint0_linear_1586_1723)"/>
</g>
<path d="M0 18.8711H11.5907C14.3099 18.7483 18.6933 18.5801 18.957 15.0015C19.1207 12.7688 17.9749 11.391 16.0241 10.518L14.519 9.96779C16.3925 9.91777 19.098 9.62675 19.7846 7.54416C20.1075 6.56198 19.9347 5.07051 19.5072 4.12926C18.325 1.5192 14.5145 1.22363 12.0226 1.13724C11.9499 1.13724 11.8817 1.09631 11.8044 1.10086H0V1.68289L0.0727543 2.78785C0.19098 6.78024 0.213716 10.7817 0.145509 14.7832L0 18.2891V18.8711ZM5.78397 12.1504H11.2633C12.0909 12.2368 13.2231 12.3005 13.1731 13.4054C13.1276 14.4149 11.5316 14.3149 10.8267 14.4058H5.78397V12.1504ZM5.78397 5.60708H11.3724C12.2318 5.69802 13.6733 5.6571 13.6596 6.86209C13.646 7.9534 12.1909 7.94886 11.4088 8.04435H5.78397V5.60708Z" fill="#E7E7E7"/>
<path d="M54.3958 19.2715C59.4977 19.0851 63.7402 17.1662 64.4359 11.6187C64.9225 7.73541 63.7857 3.693 60.0525 1.91052C56.6194 0.269005 50.1079 0.29174 46.7566 2.14243C43.2189 4.09315 42.214 8.27652 42.837 12.0507C43.7055 17.3208 47.9207 19.0896 52.7952 19.2715C53.3045 19.2897 53.8865 19.2897 54.3958 19.2715ZM52.9316 14.2469C50.3807 14.1105 48.6573 13.1283 48.4982 10.3864C48.3299 7.40802 49.8714 5.91656 52.7725 5.75286C55.6736 5.58916 58.461 6.0848 58.6838 9.44059C58.9521 13.4012 56.4557 14.4334 52.9271 14.2424L52.9316 14.2469Z" fill="#E7E7E7"/>
<path d="M36.3159 10.0042L36.7342 9.93141C39.3579 9.8632 41.9134 9.11747 41.7406 5.98904C41.4951 1.61923 37.0116 1.26455 33.5694 1.10086H21.7969C21.8105 1.67834 21.8151 2.25583 21.8333 2.82877C21.9924 7.6351 21.9924 12.3323 21.8333 17.1432C21.8151 17.7161 21.8105 18.2982 21.7969 18.8711H33.3875C36.5842 18.7347 41.0495 18.4709 40.7585 14.1648C40.5993 11.7957 38.3939 10.5225 36.3159 10.0042ZM27.5445 12.1504H33.0601C33.674 12.2368 34.6335 12.2459 34.8881 12.9416C35.3974 14.3376 33.4694 14.374 32.5872 14.4058C30.9639 14.4649 29.2997 14.3558 27.6718 14.4058L27.5445 14.3512V12.155V12.1504ZM27.5445 5.60708H33.1693C33.9559 5.69802 35.3519 5.648 35.4428 6.71203C35.552 7.93976 34.0651 7.93976 33.2057 8.0398H27.5445V5.60253V5.60708Z" fill="#E7E7E7"/>
<path d="M70.0566 18.8711L73.335 14.5104L76.5908 18.8711H83.7207L76.8454 10.2042L83.9754 1.10541H76.9L73.4396 5.78896L73.335 5.86172L69.8019 1.10541H62.7266L69.8565 10.2361L62.9812 18.8711H70.0566Z" fill="#E7E7E7"/>
<defs>
<filter id="filter0_d_1586_1723" x="78.9604" y="0.0327012" width="9.42288" height="19.6963" filterUnits="userSpaceOnUse" color-interpolation-filters="sRGB">
<feFlood flood-opacity="0" result="BackgroundImageFix"/>
<feColorMatrix in="SourceAlpha" type="matrix" values="0 0 0 0 0 0 0 0 0 0 0 0 0 0 0 0 0 0 127 0" result="hardAlpha"/>
<feOffset/>
<feGaussianBlur stdDeviation="0.457282"/>
<feColorMatrix type="matrix" values="0 0 0 0 0.0995709 0 0 0 0 0.815385 0 0 0 0 0.373966 0 0 0 1 0"/>
<feBlend mode="hard-light" in2="BackgroundImageFix" result="effect1_dropShadow_1586_1723"/>
<feBlend mode="normal" in="SourceGraphic" in2="effect1_dropShadow_1586_1723" result="shape"/>
</filter>
<linearGradient id="paint0_linear_1586_1723" x1="97.8773" y1="-17.9873" x2="100.891" y2="42.021" gradientUnits="userSpaceOnUse">
<stop stop-color="#D1D1D1" stop-opacity="0"/>
<stop offset="0.480769" stop-color="#19D05F"/>
<stop offset="1" stop-color="white" stop-opacity="0"/>
</linearGradient>
</defs>
</svg>
