<svg width="20" height="20" viewBox="0 0 20 20" fill="none" xmlns="http://www.w3.org/2000/svg">
<g clip-path="url(#clip0_2118_18924)">
<path d="M13.9502 7.52539H19.1162C19.6043 7.52539 19.9999 7.92109 19.9999 8.40914V13.1147C19.9999 14.9084 18.5458 16.3627 16.752 16.3627H16.7366C14.9429 16.3629 13.4885 14.909 13.4883 13.1152V7.98734C13.4883 7.92668 13.5002 7.8666 13.5234 7.81054C13.5466 7.75449 13.5806 7.70355 13.6235 7.66065C13.6664 7.61775 13.7173 7.58372 13.7734 7.56051C13.8294 7.53731 13.8895 7.52537 13.9502 7.52539Z" fill="#5059C9"/>
<path d="M17.4485 6.59625C18.6045 6.59625 19.5416 5.65916 19.5416 4.5032C19.5416 3.34725 18.6045 2.41016 17.4485 2.41016C16.2926 2.41016 15.3555 3.34725 15.3555 4.5032C15.3555 5.65916 16.2926 6.59625 17.4485 6.59625Z" fill="#5059C9"/>
<path d="M10.9334 6.59539C12.6031 6.59539 13.9567 5.24182 13.9567 3.57211C13.9567 1.9024 12.6031 0.548828 10.9334 0.548828C9.26373 0.548828 7.91016 1.9024 7.91016 3.57211C7.91016 5.24182 9.26373 6.59539 10.9334 6.59539Z" fill="#7B83EB"/>
<path d="M14.9596 7.52539H6.43215C5.94989 7.53734 5.5684 7.93758 5.57957 8.41984V13.7868C5.51223 16.6809 7.80184 19.0825 10.6958 19.1534C13.5898 19.0825 15.8794 16.6809 15.8122 13.7868V8.41984C15.8233 7.93758 15.4418 7.53734 14.9596 7.52539Z" fill="#7B83EB"/>
<path opacity="0.1" d="M11.1598 7.52539V15.0463C11.1587 15.215 11.1078 15.3796 11.0135 15.5195C10.9191 15.6593 10.7856 15.7682 10.6296 15.8324C10.5281 15.8754 10.4189 15.8975 10.3087 15.8975H5.98766C5.92719 15.744 5.87141 15.5905 5.82485 15.4324C5.66203 14.8987 5.57897 14.3439 5.57836 13.7859V8.41844C5.56719 7.93695 5.94805 7.53734 6.42954 7.52547L11.1598 7.52539Z" fill="black"/>
<path opacity="0.2" d="M10.6945 7.52539V15.5115C10.6945 15.6217 10.6724 15.7309 10.6295 15.8324C10.5652 15.9884 10.4564 16.122 10.3165 16.2163C10.1767 16.3106 10.0121 16.3615 9.84337 16.3627H6.20626C6.12719 16.2091 6.05274 16.0556 5.98766 15.8975C5.92514 15.7455 5.87079 15.5902 5.82485 15.4324C5.66203 14.8987 5.57897 14.3439 5.57836 13.7859V8.41844C5.56719 7.93695 5.94805 7.53734 6.42954 7.52547L10.6945 7.52539Z" fill="black"/>
<path opacity="0.2" d="M10.6946 7.52539V14.5813C10.6911 15.0498 10.3121 15.4289 9.84344 15.4324H5.82485C5.66203 14.8987 5.57897 14.3439 5.57836 13.7859V8.41844C5.56719 7.93695 5.94805 7.53734 6.42954 7.52547L10.6946 7.52539Z" fill="black"/>
<path opacity="0.2" d="M10.2295 7.52539V14.5813C10.2259 15.0498 9.84696 15.4289 9.37837 15.4324H5.82485C5.66203 14.8987 5.57897 14.3439 5.57836 13.7859V8.41844C5.56719 7.93695 5.94805 7.53734 6.42954 7.52547L10.2295 7.52539Z" fill="black"/>
<path opacity="0.1" d="M11.1604 5.1207V6.58578C11.0813 6.59047 11.0069 6.59516 10.9278 6.59516C10.8487 6.59516 10.7743 6.59047 10.6952 6.58578C10.5382 6.57536 10.3826 6.55047 10.2302 6.51141C9.76583 6.40144 9.33412 6.18312 8.97034 5.87432C8.60655 5.56552 8.32103 5.17499 8.13711 4.73469C8.07289 4.58469 8.02306 4.42894 7.98828 4.26953H10.3092C10.7785 4.27133 11.1586 4.65133 11.1604 5.1207Z" fill="black"/>
<path opacity="0.2" d="M10.6948 5.58742V6.58742C10.5378 6.577 10.3821 6.55211 10.2297 6.51305C9.76537 6.40306 9.33368 6.18475 8.96991 5.87594C8.60614 5.56714 8.32063 5.17663 8.13672 4.73633H9.84359C10.313 4.73805 10.693 5.11812 10.6948 5.58742Z" fill="black"/>
<path opacity="0.2" d="M10.6948 5.58742V6.58742C10.5378 6.577 10.3821 6.55211 10.2297 6.51305C9.76537 6.40306 9.33368 6.18475 8.96991 5.87594C8.60614 5.56714 8.32063 5.17663 8.13672 4.73633H9.84359C10.313 4.73805 10.693 5.11812 10.6948 5.58742Z" fill="black"/>
<path opacity="0.2" d="M10.2298 5.5875V6.51312C9.76543 6.40315 9.33371 6.18482 8.96993 5.876C8.60615 5.56719 8.32063 5.17665 8.13672 4.73633H9.37859C9.84797 4.73813 10.228 5.1182 10.2298 5.5875Z" fill="black"/>
<path d="M0.852578 4.73641H9.37992C9.85086 4.73641 10.2326 5.11813 10.2326 5.58898V14.1164C10.2326 14.5873 9.85086 14.969 9.38 14.969H0.852578C0.381719 14.969 0 14.5873 0 14.1164V5.58906C0 5.11805 0.381719 4.73641 0.852578 4.73641Z" fill="url(#paint0_linear_2118_18924)"/>
<path d="M7.35852 7.97859H5.65383V12.6205H4.56781V7.97859H2.87109V7.07812H7.35852V7.97859Z" fill="white"/>
</g>
<defs>
<linearGradient id="paint0_linear_2118_18924" x1="177.76" y1="-61.8783" x2="845.505" y2="1094.61" gradientUnits="userSpaceOnUse">
<stop stop-color="#5A62C3"/>
<stop offset="0.5" stop-color="#4D55BD"/>
<stop offset="1" stop-color="#3940AB"/>
</linearGradient>
<clipPath id="clip0_2118_18924">
<rect width="20" height="18.6719" fill="white" transform="translate(0 0.548828)"/>
</clipPath>
</defs>
</svg>
