<svg width="20" height="21" viewBox="0 0 20 21" fill="none" xmlns="http://www.w3.org/2000/svg">
<path d="M19.1667 11.3014C19.1667 16.1339 15.2492 20.0514 10.4167 20.0514C5.58418 20.0514 1.66667 16.1339 1.66667 11.3014C1.66667 6.46894 5.58418 2.55143 10.4167 2.55143C15.2492 2.55143 19.1667 6.46894 19.1667 11.3014Z" fill="#D9D9D9"/>
<path fill-rule="evenodd" clip-rule="evenodd" d="M20 10.8848C20 16.4073 15.5225 20.8848 10 20.8848C4.4775 20.8848 0 16.4073 0 10.8848C0 5.36227 4.4775 0.884766 10 0.884766C15.5225 0.884766 20 5.36227 20 10.8848ZM5 14.3848H12.5V8.88477C12.5 8.68778 12.4612 8.49273 12.3858 8.31074C12.3104 8.12875 12.1999 7.96339 12.0607 7.82411C11.9214 7.68482 11.756 7.57433 11.574 7.49895C11.392 7.42356 11.197 7.38477 11 7.38477H3.5V12.8848C3.5 13.2826 3.65804 13.6641 3.93934 13.9454C4.07863 14.0847 4.24399 14.1952 4.42597 14.2706C4.60796 14.346 4.80302 14.3848 5 14.3848ZM13.5 12.3848L16.5 14.3848V7.38477L13.5 9.38477V12.3848Z" fill="#2D8CFF"/>
</svg>
